<?xml version="1.0" encoding="utf-8" ?><svg xmlns="http://www.w3.org/2000/svg" xmlns:xlink="http://www.w3.org/1999/xlink" viewBox="270 166 483 706"><path fill="#1B2D45" d="M500.844 185.705C503.676 185.488 506.294 185.517 509.111 185.501C563.323 185.186 612.379 205.612 650.676 244.161C686.178 280.303 705.856 329.076 705.374 379.735C704.949 436.343 681.862 480.911 642.261 519.967C660.081 520.062 677.901 520.063 695.721 519.971C704.576 519.955 714.613 519.504 723.23 520.491C734.903 522.762 733.074 535.817 733.409 544.267C734.447 570.521 725.218 568.055 704.751 567.572C698.201 581.863 691.826 595.531 685.998 610.185C666.744 659.206 653.253 710.3 645.795 762.437C643.51 777.278 641.963 792.223 641.159 807.218C640.802 814.023 641.273 832.286 638.762 838.763C637.726 841.437 629.323 842.915 626.393 839.634C622.2 834.938 623.447 825.36 623.512 819.087C617.932 828.416 606.264 856.618 596.246 835.387C594.33 831.326 592.394 827.22 590.488 823.151C586.344 814.22 582.059 805.356 577.633 796.561C572.231 807.041 567.003 817.61 561.95 828.263C560.05 832.318 553.503 848.476 550.227 850.31C548.227 851.417 545.86 851.651 543.683 850.958C537.994 849.206 532.737 835.253 530.083 829.724C525.514 820.106 520.837 810.539 516.052 801.026L511.321 791.875C505.519 802.761 500.063 813.829 494.961 825.06C491.598 832.343 488.427 840.007 484.59 846.999C481.1 853.551 472.619 852.516 469.671 846.022C462.351 829.897 452.939 813.525 445.836 797.443C442.384 804.288 426.611 839.788 422.955 842.027C421.168 843.121 418.412 843.172 416.467 842.509C410.839 840.59 403.321 823.463 400.467 817.873C400.367 824.443 402.986 838.478 396.101 841.084C387.242 844.254 383.444 838.038 383.377 829.988C383.168 804.495 381.007 780.87 377.132 755.693C370.73 713.913 360.467 672.816 346.475 632.93C338.116 609.702 329.426 590.187 319.674 567.769C313.226 567.924 300.381 569.164 295.532 564.981C292.286 562.181 290.31 556.464 290.521 552.209C290.95 543.521 288.041 529.884 294.927 523.274C296.246 522.009 298.391 520.573 300.119 520.428C308.981 519.686 319.092 520.045 327.983 520.052L381.832 519.987C374.645 512.893 367.677 506.181 361.262 498.34C337.122 468.582 322.601 432.187 319.626 393.984C315.043 343.51 330.946 293.312 363.757 254.684C399.316 212.858 446.463 190.088 500.844 185.705Z"/><path fill="#F9BA9C" d="M442.341 321.809C444.803 323.642 456.906 336.238 459.6 338.982C470.559 350.131 481.584 361.216 492.673 372.236L571.979 451.382C590.802 470.232 608.918 488.782 628.101 507.35C623.302 511.596 617.017 515.996 611.764 519.86L593.92 519.695L508.727 519.754C488.596 460.497 458.137 413.53 408.199 374.74C416.475 356.653 428.343 336.115 442.341 321.809Z"/><path fill="#F9BA9C" d="M498.016 277.364C498.509 277.607 520.699 302.628 524.036 305.907C569.162 350.244 622.637 384.503 685.197 397.362C680.884 434.087 666.921 465.957 642.283 493.678L641.304 493.905C635.278 488.671 625.902 478.796 619.975 472.917L576.727 429.706L455.257 308.177C467.584 296.135 483.359 286.207 498.016 277.364Z"/><path fill="#F9BA9C" d="M588.793 253.718C602.925 253.252 625.016 254.783 638.778 258.262C669.312 290.398 686.352 333.025 686.385 377.354C665.687 373.253 652.807 368.802 633.358 360.206C591.718 340.922 544.825 305.644 516.628 269.196C542.22 259.217 561.251 254.928 588.793 253.718Z"/><path fill="#F9BA9C" d="M400.797 393.724C404.909 396.075 414.744 405.485 418.28 408.831C450.69 439.316 474.803 477.552 488.349 519.934L475.875 519.881C454.949 519.735 433.124 519.422 412.215 519.997C407.148 516.668 398.627 510.294 394.463 506.208C388.865 474.245 387.263 449.066 394.474 416.81C396.324 408.534 397.681 401.789 400.797 393.724Z"/><path fill="#F9BA9C" d="M382.371 261.833C383.779 263.019 385.55 265.062 386.913 266.398C400.958 280.165 414.575 294.305 428.647 308.048C417.195 321.286 407.272 334.606 398.852 349.935C396.927 353.44 394.424 359.254 392.203 362.063L391.415 362.008C376.334 350.785 359.999 341.807 343.082 333.727C350.188 305.683 363.967 283.597 382.371 261.833Z"/><path fill="#F9BA9C" d="M456.835 213.122C457.95 214.263 466.384 231.339 468.171 234.222C473.783 243.275 479.972 253.686 486.767 261.895C484.473 263.373 481.777 264.935 479.397 266.282C465.461 274.171 453.755 284.11 441.643 294.516L433.795 286.868C421.219 273.924 408.248 261.49 395.764 248.428C412.122 232.778 435.742 220.713 456.835 213.122Z"/><path fill="#F9BA9C" d="M500.433 204.711C539.849 200.949 578.381 213.677 611.123 234.968C593.717 234.386 586.412 234.57 568.954 236.133C543.529 239.591 527.813 243.062 504.082 253.494C492.192 236.727 485.283 226.262 476.278 207.767C484.036 206.238 492.545 205.404 500.433 204.711Z"/><path fill="#F9BA9C" d="M339.134 353.403C353.78 360.094 371.929 371.048 384.684 380.85C373.542 412.029 370.299 434.598 370.403 467.202C370.477 472.044 370.469 476.1 371.122 480.924C342.397 438.777 334.388 404.185 339.134 353.403Z"/><path fill="#9BE1BD" d="M613.741 580.525C614.861 581.875 620.787 594.164 621.922 596.54C627.535 608.292 633.502 620.042 639.034 631.815C630.783 646.63 622.321 666.347 614.008 682.285L613.615 682.246C612.077 680.682 590.92 635.887 588.948 631.608C590.633 627.325 594.396 620.028 596.475 615.704L613.741 580.525Z"/><path fill="#9BE1BD" d="M476.324 580.321C477.512 581.632 482.09 591.802 483.219 594.126L501.611 631.944C493.143 648.173 485.476 666.813 476.751 682.647C473.146 678.655 454.58 637.88 451.526 631.513L476.324 580.321Z"/><path fill="#9BE1BD" d="M545.211 580.298C546.177 581.214 568.484 627.85 570.053 631.484C563.776 646.841 553.077 667.563 545.514 682.762C542.976 680.142 523.274 638.082 520.129 631.831C528.701 614.786 536.659 597.419 545.211 580.298Z"/><path fill="#9BE1BD" d="M545.186 721.335C547.613 723.786 567.886 767.9 570.084 772.775C568.66 777.762 564.344 786.238 561.899 791.295C556.695 802.079 551.309 812.773 545.743 823.374L520.504 772.736C527.244 757.355 537.208 736.01 545.186 721.335Z"/><path fill="#9BE1BD" d="M476.357 721.308C478.254 722.815 499.538 767.288 501.967 772.613C499.936 777.467 496.125 784.733 493.744 789.647L477.512 822.95C475.973 822.209 453.882 776.685 452.004 772.477C459.91 755.317 468.398 738.466 476.357 721.308Z"/><path fill="#9BE1BD" d="M579.289 650.867C581.957 653.579 601.241 695.419 604.366 702.013C598.584 713.233 593.401 725.843 587.599 737.181C584.809 742.633 582.679 747.929 579.348 753.163C577.611 750.412 573.203 740.66 571.605 737.348C565.994 725.501 560.278 713.704 554.457 701.959L579.289 650.867Z"/><path fill="#9BE1BD" d="M442.17 650.806C443.91 652.467 465.118 697.025 467.381 702.158C459.695 718.64 451.059 736.65 442.757 752.735C441 751.178 420.601 708.179 417.54 702.032C425.141 686.112 434.121 666.157 442.17 650.806Z"/><path fill="#9BE1BD" d="M407.849 580.429C409.337 582.087 416.344 597.746 417.813 600.836L432.784 631.706C426.321 646.914 415.801 667.866 408.263 682.659C405.826 679.937 386.206 637.903 383.331 631.544C384.442 628.798 385.917 625.764 387.223 623.093C394.132 608.955 400.535 594.348 407.849 580.429Z"/><path fill="#9BE1BD" d="M510.766 651.236C512.15 652.19 533.641 697.113 536.054 702.028C527.811 717.9 518.902 736.575 511.33 752.784C509.453 751.158 488.952 707.968 486.077 702.186L510.766 651.236Z"/><path fill="#9BE1BD" d="M614.087 721.319C616.795 725.256 627.249 747.641 629.623 752.786C627.585 761.729 626.082 774.88 625.371 783.975C620.558 790.001 616.615 797.689 612.561 804.265C611.077 806.671 607.533 813.574 605.765 815.179L605.06 814.613C599.162 803.695 593.612 790.93 588.54 779.584C586.386 774.767 594.64 760.179 597.003 755.338C602.477 743.889 608.173 732.547 614.087 721.319Z"/><path fill="#9BE1BD" d="M408.249 721.38C411.788 725.593 430.748 766.459 433.736 773.481L431.207 778.459C432.305 779.623 433.627 780.826 434.8 781.942C429.612 792.236 424.899 802.144 419.979 812.583C419.036 814.321 419.301 814.507 417.864 815.328C414.193 810.56 401.816 787.748 398.319 781.186C397.978 780.547 396.715 769.605 396.527 767.992C395.889 762.282 395.074 756.593 394.084 750.933C398.63 740.999 403.352 731.146 408.249 721.38Z"/><path fill="#9BE1BD" d="M629.029 568.26C641.947 567.802 657.008 568.142 670.038 568.27L655.246 599.145C652.993 603.675 650.684 608.177 648.321 612.651C645.741 607.612 626.768 570.658 627.288 568.535L629.029 568.26Z"/><path fill="#9BE1BD" d="M422.725 568.251C436.119 567.895 450.566 568.126 464.076 568.021L448.391 600.297L442.351 612.738C439.937 608.73 420.991 570.041 421.294 568.513L422.725 568.251Z"/><path fill="#9BE1BD" d="M563.254 568.246C575.051 567.865 589.439 568.123 601.279 568.289C596.051 579.156 590.756 589.99 585.393 600.791C583.635 604.629 581.36 608.915 579.45 612.733C573.676 601.131 568.231 589.359 562.488 577.74C561.055 574.841 559.562 571.958 558.51 568.893C559.67 568.039 561.693 568.259 563.254 568.246Z"/><path fill="#9BE1BD" d="M359.733 568.233C371.522 568.12 383.312 568.127 395.1 568.257C389.966 579.737 384.551 591.089 378.859 602.304L373.67 612.642C366.598 597.884 359.449 583.164 352.223 568.48L359.733 568.233Z"/><path fill="#9BE1BD" d="M493.307 568.232L532.504 568.243C527.7 578.671 522.035 590.06 516.84 600.307C514.923 604.452 512.751 608.547 510.655 612.61C504.48 599.223 494.975 582.117 489.755 568.933C490.981 568.09 491.562 568.353 493.307 568.232Z"/><path fill="#9BE1BD" d="M648.206 650.391C648.861 651.159 651.061 654.997 651.711 656.082C644.373 679.546 639.489 700.445 634.226 724.338L631.466 718.873C628.666 713.301 625.937 707.693 623.279 702.052C630.287 685.98 640.41 666.593 648.206 650.391Z"/><path fill="#9BE1BD" d="M373.196 650.78C375.875 653.357 395.834 694.951 399.027 701.963L391.971 716.636L388.85 722.988C385.963 703.479 379.891 680.48 374.105 661.499C372.505 656.253 371.06 654.922 373.196 650.78Z"/><path fill="#9BE1BD" d="M663.296 619.898C663.291 622.333 659.673 630.942 658.559 633.546C656.969 630.426 661.656 622.962 663.296 619.898Z"/></svg>